# xmcd
#
# Track frame offsets:
#	150
#	22712
#	46792
#	80145
#
# Disc length: 1440 seconds
#
# Revision: 1
# Processed by: cddbd v1.5PL3 Copyright (c) Steve Scherf et al.
# Submitted via: CDex 1.50Beta5
#
DISCID=21059e04
DTITLE=キセル - ピクニック
DYEAR=2001
DGENRE=Rock
TTITLE0=ピクニック
TTITLE1=島根
TTITLE2=コロンビア
TTITLE3=口笛
EXTD=
EXTT0=
EXTT1=
EXTT2=
EXTT3=
PLAYORDER=
